<svg xmlns="http://www.w3.org/2000/svg" viewBox="0 0 600 280" role="img"><title>wall-push — movement diagram</title><defs><marker id="arr" markerWidth="6" markerHeight="6" refX="5" refY="3" orient="auto"><path d="M0 0L6 3L0 6" fill="none" stroke="#CE712E" stroke-width="1.5"/></marker></defs><rect width="600" height="280" fill="#F5F7FA"/><g transform="translate(12,32)"><polyline points="20,204 258,204" fill="none" stroke="#CFDAE5" stroke-width="2" stroke-linecap="round" stroke-linejoin="round"/><polyline points="241,12 241,204" fill="none" stroke="#B6C6D5" stroke-width="5" stroke-linecap="round" stroke-linejoin="round"/><circle cx="180" cy="32" r="14" fill="#F5F7FA" stroke="#24415D" stroke-width="7"/><polyline points="176,51 157,111" fill="none" stroke="#24415D" stroke-width="9" stroke-linecap="round" stroke-linejoin="round"/><polyline points="176,56 206,61 237,61" fill="none" stroke="#CE712E" stroke-width="7" stroke-linecap="round" stroke-linejoin="round"/><polyline points="157,111 136,155 121,198 139,198" fill="none" stroke="#24415D" stroke-width="9" stroke-linecap="round" stroke-linejoin="round"/><text x="138" y="233" text-anchor="middle" font-family="Arial" font-size="15" fill="#526170">1</text></g><g transform="translate(312,32)"><polyline points="20,204 258,204" fill="none" stroke="#CFDAE5" stroke-width="2" stroke-linecap="round" stroke-linejoin="round"/><polyline points="241,12 241,204" fill="none" stroke="#B6C6D5" stroke-width="5" stroke-linecap="round" stroke-linejoin="round"/><circle cx="214" cy="39" r="14" fill="#F5F7FA" stroke="#24415D" stroke-width="7"/><polyline points="206,57 169,116" fill="none" stroke="#24415D" stroke-width="9" stroke-linecap="round" stroke-linejoin="round"/><polyline points="206,59 203,93 237,64" fill="none" stroke="#CE712E" stroke-width="7" stroke-linecap="round" stroke-linejoin="round"/><polyline points="169,116 142,158 121,198 139,198" fill="none" stroke="#24415D" stroke-width="9" stroke-linecap="round" stroke-linejoin="round"/><text x="138" y="233" text-anchor="middle" font-family="Arial" font-size="15" fill="#526170">2</text></g><path d="M299 54V232" stroke="#DFE6ED" stroke-width="1"/></svg>